<?xml version="1.0" standalone="no"?>
<!DOCTYPE svg PUBLIC "-//W3C//DTD SVG 20010904//EN"
 "http://www.w3.org/TR/2001/REC-SVG-20010904/DTD/svg10.dtd">
<svg version="1.0" xmlns="http://www.w3.org/2000/svg"
 width="130.000000pt" height="130.000000pt" viewBox="0 0 130.000000 130.000000"
 preserveAspectRatio="xMidYMid meet">
<metadata>
Created by potrace 1.11, written by Peter Selinger 2001-2013
</metadata>
<g transform="translate(0.000000,130.000000) scale(0.100000,-0.100000)"
fill="#000000" stroke="none">
<path d="M535 1225 c-49 -18 -97 -35 -105 -38 -8 -3 -49 -17 -90 -32 -41 -14
-82 -28 -90 -32 -8 -3 -19 -5 -23 -4 -8 1 -3 -69 9 -139 2 -14 6 -47 9 -75 3
-27 7 -68 10 -90 11 -74 16 -120 21 -180 6 -64 13 -74 82 -111 21 -10 74 -40
120 -66 46 -27 88 -48 93 -48 5 0 9 -4 9 -9 0 -5 12 -12 26 -15 24 -7 64 12
249 114 17 9 53 29 82 44 30 17 51 35 51 45 0 25 12 144 17 161 2 8 7 49 10
90 4 41 8 77 10 80 2 3 6 37 10 75 3 39 8 81 10 96 4 23 0 27 -58 46 -34 11
-127 44 -207 72 -80 28 -147 51 -150 50 -3 0 -45 -15 -95 -34z"/>
<path d="M51 202 c-13 -31 -30 -69 -37 -84 -7 -15 -8 -30 -4 -33 10 -6 31 31
49 88 11 32 31 51 31 30 0 -5 3 -18 6 -31 5 -18 3 -21 -10 -16 -11 4 -16 1
-16 -10 0 -10 9 -16 24 -16 17 0 26 -7 30 -24 5 -20 12 -24 34 -22 25 3 27 7
32 62 l5 59 33 -52 c36 -55 59 -79 68 -70 9 8 10 158 2 163 -12 8 -19 -15 -20
-67 0 -28 -3 -47 -7 -43 -4 5 -24 32 -45 61 -48 68 -64 62 -61 -23 1 -36 -1
-67 -5 -69 -4 -2 -21 32 -40 75 -18 44 -35 80 -39 80 -3 0 -17 -26 -30 -58z"/>
<path d="M811 196 c-16 -36 -32 -75 -36 -86 -4 -12 -11 -17 -18 -13 -7 5 -28
8 -47 8 l-35 0 2 68 c1 52 -2 67 -13 67 -12 0 -14 -15 -12 -77 l3 -78 63 -1
c59 -2 63 -1 77 27 9 16 15 31 15 34 0 3 7 19 16 37 12 24 18 28 25 17 12 -20
11 -49 -2 -47 -6 2 -14 -3 -16 -9 -3 -8 4 -13 20 -13 16 0 28 -8 35 -25 11
-23 32 -35 32 -17 0 9 -66 161 -73 169 -3 3 -19 -24 -36 -61z"/>
<path d="M373 239 c-28 -10 -43 -39 -43 -82 0 -39 22 -63 65 -71 49 -9 65 1
65 41 0 23 -4 33 -12 30 -7 -2 -14 -10 -14 -18 -1 -8 -2 -19 -3 -26 -1 -17
-52 -6 -67 14 -12 18 -8 72 7 88 5 5 25 9 44 10 19 0 36 5 38 10 3 13 -51 15
-80 4z"/>
<path d="M489 238 c-9 -101 1 -143 36 -152 27 -7 65 0 79 14 12 12 25 139 14
146 -13 8 -22 -20 -22 -74 -1 -56 -14 -73 -49 -66 -30 5 -37 22 -37 87 0 31
-4 57 -10 57 -5 0 -10 -6 -11 -12z"/>
<path d="M944 239 c-10 -17 -7 -140 4 -151 14 -14 13 -16 16 74 1 52 4 61 21
64 20 3 45 -12 45 -27 0 -5 -11 -14 -24 -20 -28 -13 -25 -32 11 -73 39 -45 59
-30 23 17 -25 31 -25 33 -1 58 17 18 19 57 2 60 -30 6 -92 5 -97 -2z"/>
<path d="M1118 238 c-3 -7 -4 -39 -3 -70 1 -47 -1 -57 -17 -61 -21 -6 -25 -26
-4 -23 35 5 46 28 46 97 0 62 -11 89 -22 57z"/>
<path d="M1193 237 c-48 -21 -31 -72 27 -82 67 -12 58 -56 -10 -49 -43 5 -56
-12 -17 -21 65 -16 117 27 88 74 -5 7 -24 15 -42 17 -42 5 -56 18 -40 38 8 10
24 13 46 11 38 -5 58 12 23 19 -31 6 -50 5 -75 -7z"/>
</g>
</svg>
